<svg xmlns="http://www.w3.org/2000/svg" xmlns:xlink="http://www.w3.org/1999/xlink" version="1.1" enable-background="new 0 0 1000 1000" xml:space="preserve" width="1000" height="1000" style=""><rect id="backgroundrect" width="100%" height="100%" x="0" y="0" fill="none" stroke="none"/>
<metadata> Svg Vector Icons : http://www.onlinewebfonts.com/icon </metadata>

<g class="currentLayer" style=""><title>Layer 1</title><g id="svg_1" class="selected" fill="#ffffff" fill-opacity="1"><path d="M982.4,519.4L493.1,30.2L17.3,519.6c-9.9,10.2-9.7,26.6,0.5,36.5c5,4.9,11.5,7.3,18,7.3c6.7,0,13.4-2.6,18.5-7.8l66.9-68.8v405.6c0,42.6,34.7,77.3,77.4,77.3h144.7c42.7,0,77.4-34.7,77.4-77.3V750.6c0-14.2,11.6-25.8,25.8-25.8h176.2c14.2,0,25.8-11.5,25.8-25.8s-11.6-25.8-25.8-25.8H446.4c-42.7,0-77.4,34.7-77.4,77.3v141.9c0,14.2-11.6,25.8-25.8,25.8H198.5c-14.2,0-25.8-11.6-25.8-25.8V433.8l320.9-330.1L946,555.9c10.1,10.1,26.4,10.1,36.5,0C992.5,545.8,992.5,529.4,982.4,519.4z" id="svg_2" fill="#ffffff" fill-opacity="1"/><path d="M857.8,569.9c-14.3,0-25.8,11.5-25.8,25.8v296.6c0,14.2-11.5,25.8-25.8,25.8H609.6c-14.3,0-25.8,11.6-25.8,25.8c0,14.3,11.5,25.8,25.8,25.8h196.6c42.7,0,77.4-34.7,77.4-77.4V595.7C883.6,581.5,872,569.9,857.8,569.9z" id="svg_3" fill="#ffffff" fill-opacity="1"/></g></g></svg>